<svg width="40" height="40" viewBox="0 0 40 40" fill="none" xmlns="http://www.w3.org/2000/svg">
<path d="M34.1431 5.85685C30.364 2.07771 25.3415 0 20 0C14.6585 0 9.63599 2.07771 5.85685 5.85685C2.07771 9.63599 0 14.6585 0 20C0 25.3415 2.07771 30.364 5.85685 34.1431C9.63599 37.9223 14.6585 40 20 40C25.3415 40 30.364 37.9223 34.1431 34.1431C37.9223 30.364 40 25.3415 40 20C40 14.6585 37.9223 9.63599 34.1431 5.85685ZM20 37.7914C10.1922 37.7914 2.20859 29.8078 2.20859 20C2.20859 10.1922 10.1922 2.20859 20 2.20859C29.8078 2.20859 37.7914 10.1922 37.7914 20C37.7914 29.8078 29.8078 37.7914 20 37.7914Z" fill="white"/>
<path d="M19.9998 16.6217C22.871 16.6217 25.2023 14.2822 25.2023 11.4193C25.2023 8.55627 22.871 6.20862 19.9998 6.20862C17.1287 6.20862 14.7974 8.54809 14.7974 11.4111C14.7974 14.2741 17.1287 16.6217 19.9998 16.6217ZM19.9998 8.41721C21.6522 8.41721 22.9937 9.75872 22.9937 11.4111C22.9937 13.0634 21.6522 14.4049 19.9998 14.4049C18.3475 14.4049 17.006 13.0634 17.006 11.4111C17.006 9.75872 18.3475 8.41721 19.9998 8.41721Z" fill="white"/>
<path d="M27.8854 22.9448C26.0613 20.2618 23.411 18.8958 20 18.8958C16.5889 18.8958 13.9386 20.2536 12.1145 22.9448C10.7566 24.9407 9.88954 27.6647 9.54598 31.0185C9.48054 31.6238 9.92226 32.1718 10.5276 32.2291C11.1329 32.2945 11.6809 31.8528 11.7382 31.2475C12.4335 24.5154 15.2147 21.1043 20 21.1043C24.7852 21.1043 27.5664 24.5154 28.2617 31.2475C28.319 31.8119 28.8016 32.2373 29.3578 32.2373C29.3987 32.2373 29.4315 32.2373 29.4724 32.2291C30.0777 32.1636 30.5194 31.6238 30.454 31.0185C30.1104 27.6565 29.2433 24.9407 27.8854 22.9448Z" fill="white"/>
</svg>
